# xmcd
#
# Track frame offsets:
#	150
#	16474
#	30601
#	48172
#	65834
#	82261
#	99150
#	113503
#	130326
#	142637
#	156988
#	167672
#	178029
#	191070
#	221704
#	238154
#
# Disc length: 3387 seconds
#
# Revision: 1
# Processed by: cddbd v1.5.1PL0 Copyright (c) Steve Scherf et al.
# Submitted via: audiograbber 1.83.01
#
DISCID=dc0d3910
DTITLE=Die Stehpisser - Wild Men
DYEAR=2003
DGENRE=
TTITLE0=1SAME THINK HAPPEND TO ME
TTITLE1=I AIN``T NEVER SATISFIED
TTITLE2=SEVEN DAYS
TTITLE3=COFFEE AND MILK
TTITLE4=STONED ME
TTITLE5=AIN`HURTING NOBODY
TTITLE6=RAD GUMBO
TTITLE7=MARGARITAVILLE
TTITLE8=WILD MEN
TTITLE9=STAND STILL
TTITLE10=GIRLS AND CARS
TTITLE11=TWENTY FLIGHT ROCK
TTITLE12=LITTLE ANGEL
TTITLE13=BALTIMORE
TTITLE14=CARMELITA
TTITLE15=ZUGABE
EXTD=
EXTT0=
EXTT1=
EXTT2=
EXTT3=
EXTT4=
EXTT5=
EXTT6=
EXTT7=
EXTT8=
EXTT9=
EXTT10=
EXTT11=
EXTT12=
EXTT13=
EXTT14=
EXTT15=
PLAYORDER=
